<?xml version="1.0" standalone="no"?>
<!DOCTYPE svg PUBLIC "-//W3C//DTD SVG 20010904//EN"
 "http://www.w3.org/TR/2001/REC-SVG-20010904/DTD/svg10.dtd">
<svg version="1.0" xmlns="http://www.w3.org/2000/svg"
 width="720.000000pt" height="720.000000pt" viewBox="0 0 720.000000 720.000000"
 preserveAspectRatio="xMidYMid meet">
<metadata>
Created by potrace 1.14, written by Peter Selinger 2001-2017
</metadata>
<g transform="translate(0.000000,720.000000) scale(0.100000,-0.100000)"
fill="#000000" stroke="none">
<path d="M3315 6721 c-11 -5 -70 -16 -130 -26 -132 -20 -171 -37 -250 -105
-33 -28 -72 -58 -87 -66 -14 -7 -36 -27 -47 -43 -18 -26 -32 -31 -113 -45
-137 -24 -228 -47 -228 -57 0 -5 14 -9 30 -9 17 0 30 -5 30 -12 0 -8 -30 -9
-111 -5 -67 4 -118 3 -130 -3 -17 -9 -17 -13 -3 -52 8 -22 12 -43 10 -45 -2
-2 -34 3 -70 12 -101 23 -111 21 -164 -32 -80 -81 -316 -395 -310 -413 2 -6
35 9 73 34 39 24 81 47 94 51 27 8 30 13 -68 -149 -37 -61 -87 -147 -111 -191
-24 -44 -59 -97 -77 -118 -94 -106 -181 -275 -190 -370 -6 -65 12 -347 28
-432 5 -27 34 -99 64 -160 47 -95 56 -125 70 -218 23 -149 40 -201 80 -241 39
-40 51 -78 59 -201 4 -49 20 -144 36 -210 16 -66 32 -158 35 -205 10 -133 17
-149 104 -245 93 -101 108 -130 127 -238 8 -44 17 -83 20 -86 7 -8 21 16 44
79 34 92 53 130 63 130 11 0 3 -468 -9 -528 -10 -48 12 -40 39 16 13 26 39 89
57 140 18 50 36 92 41 92 19 0 3 -188 -31 -368 -30 -155 -28 -186 20 -263 85
-134 85 -135 85 -324 0 -246 21 -236 88 45 21 91 46 190 55 220 l15 55 13 -31
c15 -37 34 -174 34 -254 1 -50 2 -53 15 -36 17 23 56 140 85 256 12 47 25 89
30 94 15 16 23 -43 17 -132 -6 -98 -35 -192 -93 -303 -56 -106 -168 -196 -357
-287 -89 -44 -162 -87 -196 -116 -72 -63 -122 -96 -207 -139 -128 -64 -262
-115 -381 -146 -236 -59 -607 -205 -800 -314 -54 -30 -125 -63 -157 -72 -77
-22 -102 -49 -191 -211 -38 -70 -113 -193 -165 -273 -53 -80 -99 -152 -104
-158 -6 -10 707 -13 3548 -13 l3556 0 0 508 0 507 -86 74 c-47 41 -95 87 -106
102 -52 69 -126 103 -313 139 -143 28 -162 37 -238 108 l-63 59 -95 7 c-118 9
-165 20 -435 101 -170 51 -222 71 -234 88 -33 48 -61 67 -131 87 -148 42 -384
122 -434 147 -84 43 -192 123 -249 184 -57 61 -107 127 -88 116 17 -11 32 26
32 81 0 58 7 68 33 45 19 -18 20 -17 13 12 -3 17 -9 54 -13 84 l-6 55 37 -23
c20 -13 40 -20 43 -17 4 3 -15 55 -41 114 -62 138 -65 155 -66 289 l0 113 40
65 c67 110 147 276 179 371 34 103 54 216 72 397 7 70 16 127 19 127 4 0 15
-11 24 -25 9 -14 21 -23 26 -20 20 12 40 121 55 305 9 107 22 236 30 285 8 50
15 109 15 132 0 27 5 45 15 50 13 8 12 14 -6 48 -18 35 -20 52 -15 130 3 50 9
182 12 295 6 213 6 221 -41 342 -5 12 0 17 16 20 21 3 16 11 -49 88 -39 47
-72 88 -72 93 0 4 13 7 29 7 17 0 32 4 36 9 3 6 -22 40 -57 76 -49 53 -59 68
-47 76 17 11 -5 32 -151 139 -95 69 -257 226 -246 237 3 3 26 -2 52 -11 61
-21 113 -21 121 0 9 25 -36 63 -137 114 -139 70 -419 201 -462 216 -44 15 -59
3 -32 -27 16 -18 16 -19 -6 -19 -28 0 -268 79 -276 91 -3 5 8 9 25 9 34 0 61
9 61 20 0 20 -241 79 -410 100 -98 12 -236 12 -265 1z"/>
</g>
</svg>
